# This file uses centimeters as units for non-parametric coordinates.

mtllib Tree.mtl
g default
v 0.707107 0.000000 -0.707107
v 0.000000 0.000000 -1.000000
v -0.707107 0.000000 -0.707107
v -1.000000 0.000000 0.000000
v -0.707107 0.000000 0.707107
v 0.000000 0.000000 1.000000
v 0.707107 0.000000 0.707107
v 1.000000 0.000000 0.000000
v 0.707107 1.443944 -0.707107
v 0.000000 1.443944 -1.000000
v -0.707107 1.443944 -0.707107
v -1.000000 1.443944 0.000000
v -0.707107 1.443944 0.707107
v 0.000000 1.443944 1.000000
v 0.707107 1.443944 0.707107
v 1.000000 1.443944 0.000000
v 0.000000 0.000000 0.000000
v 0.668442 2.822446 -0.655981
v -0.038664 2.822446 -0.948874
v -0.550395 2.822446 -0.655981
v -0.843288 2.822446 0.051126
v -0.550395 2.822446 0.758232
v -0.038664 2.822446 1.051126
v 0.668442 2.822446 0.758232
v 0.961335 2.822446 0.051126
v 0.570773 4.168033 -0.664650
v -0.166804 4.168033 -0.823064
v -0.635380 4.168033 -0.489269
v -0.833898 4.168033 0.180962
v -0.452726 4.168033 0.766902
v 0.091508 4.168033 0.953429
v 0.753427 4.168033 0.591520
v 0.951945 4.168033 -0.078710
v 0.463983 5.492795 -0.557005
v -0.090990 5.492795 -0.683376
v -0.526138 5.492795 -0.386394
v -0.720997 5.492795 0.079073
v -0.441788 5.492795 0.691693
v 0.005243 5.492795 0.878225
v 0.696189 5.492795 0.493373
v 0.835646 5.492795 -0.053366
v 0.463983 5.492795 -0.557005
v -0.090990 5.492795 -0.683376
v -0.526138 5.492795 -0.386394
v -0.720997 5.492795 0.079073
v -0.441788 5.492795 0.691693
v 0.005243 5.492795 0.878225
v 0.696189 5.492795 0.493373
v 0.835646 5.492795 -0.053366
v -0.550395 2.822446 -0.655981
v -0.843288 2.822446 0.051126
v -0.833898 4.168033 0.180962
v -0.635380 4.168033 -0.489269
v 0.558514 6.823255 -0.449500
v -0.223446 6.942161 -0.587383
v -0.590894 6.779462 -0.276279
v -0.701428 6.669529 0.119213
v -0.336812 6.670203 0.606320
v 0.001871 6.718422 0.796219
v 0.610596 6.629256 0.440743
v 0.831596 6.657717 0.002590
v 0.605410 8.045210 -0.358750
v 0.035478 8.019223 -0.632130
v -0.659932 8.058020 -0.251116
v -0.578501 8.130541 0.235241
v -0.044169 8.211282 0.636777
v 0.011928 8.222341 0.641044
v 0.361684 8.189648 0.584180
v 0.741856 8.114576 0.174052
v 0.492286 9.895584 -0.378357
v -0.213432 9.950401 -0.612507
v -0.539520 9.877746 -0.302164
v -0.565366 9.762874 0.188507
v -0.240980 9.672079 0.576334
v -0.001802 9.648702 0.676188
v 0.388961 9.700721 0.453992
v 0.688700 9.783498 0.100413
v 0.413306 11.531325 -0.330261
v 0.016769 11.531325 -0.486143
v -0.411201 11.531325 -0.148913
v -0.463090 11.531325 0.174490
v -0.024628 11.531325 0.439852
v 0.044734 11.531325 0.579579
v 0.333314 11.531325 0.342071
v 0.617859 11.531325 0.090153
v 0.204129 12.760793 -0.249469
v -0.011685 12.760793 -0.278093
v 0.184389 12.760792 -0.017575
v -0.256536 12.760793 -0.077911
v -0.413975 12.760793 0.113993
v -0.176903 12.760793 0.427521
v -0.071024 12.760793 0.508866
v 0.360334 12.760793 0.228020
v 0.540470 12.760793 -0.030928
vt 0.610485 0.045765
vt 0.500000 0.000000
vt 0.389515 0.045765
vt 0.343750 0.156250
vt 0.389515 0.266735
vt 0.500000 0.312500
vt 0.610485 0.266735
vt 0.656250 0.156250
vt 0.375000 0.312500
vt 0.406250 0.312500
vt 0.437500 0.312500
vt 0.468750 0.312500
vt 0.500000 0.312500
vt 0.531250 0.312500
vt 0.562500 0.312500
vt 0.593750 0.312500
vt 0.625000 0.312500
vt 0.375000 0.687500
vt 0.406250 0.687500
vt 0.437500 0.687500
vt 0.468750 0.687500
vt 0.500000 0.687500
vt 0.531250 0.687500
vt 0.562500 0.687500
vt 0.593750 0.687500
vt 0.625000 0.687500
vt 0.610485 0.733265
vt 0.500000 0.687500
vt 0.389515 0.733265
vt 0.343750 0.843750
vt 0.389515 0.954235
vt 0.500000 1.000000
vt 0.610485 0.954235
vt 0.656250 0.843750
vt 0.500000 0.156250
vt 0.500000 0.843750
vt 0.610485 0.954235
vt 0.500000 1.000000
vt 0.389515 0.954235
vt 0.343750 0.843750
vt 0.389515 0.733265
vt 0.500000 0.687500
vt 0.610485 0.733265
vt 0.656250 0.843750
vt 0.610485 0.954235
vt 0.500000 1.000000
vt 0.389515 0.954235
vt 0.343750 0.843750
vt 0.389515 0.733265
vt 0.500000 0.687500
vt 0.610485 0.733265
vt 0.656250 0.843750
vt 0.610485 0.954235
vt 0.500000 1.000000
vt 0.389515 0.954235
vt 0.343750 0.843750
vt 0.389515 0.733265
vt 0.500000 0.687500
vt 0.610485 0.733265
vt 0.656250 0.843750
vt 0.610485 0.954235
vt 0.500000 1.000000
vt 0.389515 0.954235
vt 0.343750 0.843750
vt 0.389515 0.733265
vt 0.500000 0.687500
vt 0.610485 0.733265
vt 0.656250 0.843750
vt 0.389515 0.954235
vt 0.343750 0.843750
vt 0.343750 0.843750
vt 0.389515 0.954235
vt 0.610485 0.954235
vt 0.500000 1.000000
vt 0.389515 0.954235
vt 0.343750 0.843750
vt 0.389515 0.733265
vt 0.500000 0.687500
vt 0.610485 0.733265
vt 0.656250 0.843750
vt 0.610485 0.954235
vt 0.500000 1.000000
vt 0.389515 0.954235
vt 0.343750 0.843750
vt 0.389515 0.733265
vt 0.500000 0.687500
vt 0.610485 0.733265
vt 0.656250 0.843750
vt 0.610485 0.954235
vt 0.500000 1.000000
vt 0.389515 0.954235
vt 0.343750 0.843750
vt 0.389515 0.733265
vt 0.500000 0.687500
vt 0.610485 0.733265
vt 0.656250 0.843750
vt 0.610485 0.954235
vt 0.500000 1.000000
vt 0.389515 0.954235
vt 0.343750 0.843750
vt 0.389515 0.733265
vt 0.500000 0.687500
vt 0.610485 0.733265
vt 0.656250 0.843750
vt 0.610485 0.954235
vt 0.500000 1.000000
vt 0.389515 0.954235
vt 0.343750 0.843750
vt 0.389515 0.733265
vt 0.500000 0.687500
vt 0.610485 0.733265
vt 0.656250 0.843750
vn 0.382683 0.000000 -0.923880
vn 0.382683 0.000000 -0.923880
vn 0.382590 0.022056 -0.923655
vn 0.382592 0.021888 -0.923658
vn -0.382683 0.000000 -0.923880
vn -0.382683 0.000000 -0.923880
vn -0.405092 0.023021 -0.913986
vn -0.405505 0.023449 -0.913792
vn -0.923880 0.000000 -0.382683
vn -0.923880 0.000000 -0.382683
vn -0.922327 0.057957 -0.382040
vn -0.922308 0.058303 -0.382032
vn -0.923880 0.000000 0.382683
vn -0.923880 0.000000 0.382683
vn -0.922927 0.045409 0.382289
vn -0.923018 0.043180 0.382326
vn -0.382683 0.000000 0.923880
vn -0.382683 0.000000 0.923880
vn -0.405837 -0.006783 0.913920
vn -0.404949 -0.006521 0.914316
vn 0.382683 0.000000 0.923880
vn 0.382683 0.000000 0.923880
vn 0.382659 -0.011340 0.923820
vn 0.382657 -0.011640 0.923817
vn 0.923880 0.000000 0.382683
vn 0.923880 0.000000 0.382683
vn 0.923865 0.005639 0.382677
vn 0.923864 0.005807 0.382677
vn 0.923880 0.000000 -0.382684
vn 0.923880 0.000000 -0.382684
vn 0.923705 0.019433 -0.382611
vn 0.923700 0.019733 -0.382609
vn 0.000000 -1.000000 0.000000
vn 0.000000 -1.000000 0.000000
vn 0.000000 -1.000000 0.000000
vn 0.000000 -1.000000 0.000000
vn 0.000000 -1.000000 0.000000
vn 0.000000 -1.000000 0.000000
vn 0.000000 -1.000000 0.000000
vn 0.000000 -1.000000 0.000000
vn 0.000000 -1.000000 0.000000
vn -0.000002 1.000000 0.000010
vn 0.000001 1.000000 0.000002
vn -0.000001 1.000000 -0.000000
vn 0.000002 1.000000 0.000007
vn 0.000001 1.000000 -0.000001
vn 0.000001 1.000000 -0.000007
vn -0.000000 1.000000 -0.000008
vn -0.000002 1.000000 -0.000005
vn -0.000003 1.000000 -0.000002
vn 0.340152 0.055776 -0.938715
vn 0.342113 0.055279 -0.938031
vn -0.482129 0.050594 -0.874638
vn -0.478637 0.050693 -0.876548
vn -0.917383 0.118384 -0.379992
vn -0.917383 0.118384 -0.379992
vn -0.905009 0.051164 0.422305
vn -0.906495 0.054708 0.418658
vn -0.423960 0.022088 0.905412
vn -0.424670 0.019313 0.905142
vn 0.407261 0.015436 0.913181
vn 0.406165 0.013675 0.913698
vn 0.932897 0.011162 0.359971
vn 0.932501 0.011187 0.360994
vn 0.906488 0.026287 -0.421412
vn 0.906953 0.026653 -0.420389
vn 0.259268 0.078915 -0.962576
vn 0.260952 0.078370 -0.962165
vn -0.553720 0.081685 -0.828687
vn -0.552521 0.079128 -0.829734
vn -0.941796 0.010572 -0.336017
vn -0.941796 0.010572 -0.336017
vn -0.941796 0.010572 -0.336017
vn -0.941796 0.010572 -0.336017
vn -0.880824 0.041106 0.471655
vn -0.880962 0.040458 0.471454
vn -0.384198 0.054697 0.921629
vn -0.384637 0.054855 0.921437
vn 0.457450 0.069218 0.886538
vn 0.455824 0.068285 0.887447
vn 0.951886 0.038557 0.304018
vn 0.951140 0.036306 0.306617
vn 0.856764 0.052554 -0.513024
vn 0.858211 0.050704 -0.510786
vn 0.214229 0.093271 -0.972320
vn 0.214229 0.093271 -0.972320
vn -0.568597 0.114293 -0.814637
vn -0.568597 0.114293 -0.814637
vn -0.941961 0.079098 -0.326272
vn -0.941961 0.079098 -0.326272
vn -0.941961 0.079098 -0.326272
vn -0.941961 0.079098 -0.326272
vn -0.873517 0.072998 0.481289
vn -0.873517 0.072998 0.481289
vn -0.351902 0.043077 0.935045
vn -0.351902 0.043077 0.935045
vn 0.481579 0.083165 0.872448
vn 0.481579 0.083165 0.872448
vn 0.961150 0.070288 0.266929
vn 0.961150 0.070288 0.266929
vn 0.818811 0.097341 -0.565750
vn 0.818811 0.097341 -0.565750
vn 0.000000 0.000000 0.000000
vn 0.000000 0.000000 0.000000
vn 0.000000 0.000000 0.000000
vn 0.000000 0.000000 0.000000
vn 0.000000 0.000000 0.000000
vn 0.000000 0.000000 0.000000
vn 0.000000 0.000000 0.000000
vn 0.000000 0.000000 0.000000
vn 0.000000 0.000000 0.000000
vn 0.000000 0.000000 0.000000
vn 0.000000 0.000000 0.000000
vn 0.000000 0.000000 0.000000
vn 0.000000 0.000000 0.000000
vn 0.000000 0.000000 0.000000
vn 0.000000 0.000000 0.000000
vn 0.000000 0.000000 0.000000
vn 0.000000 0.000000 0.000000
vn 0.000000 0.000000 0.000000
vn 0.000000 0.000000 0.000000
vn 0.000000 0.000000 0.000000
vn 0.000000 0.000000 0.000000
vn 0.000000 0.000000 0.000000
vn 0.000000 0.000000 0.000000
vn 0.000000 0.000000 0.000000
vn 0.000000 0.000000 0.000000
vn 0.000000 0.000000 0.000000
vn 0.000000 0.000000 0.000000
vn 0.000000 0.000000 0.000000
vn 0.000000 0.000000 0.000000
vn 0.000000 0.000000 0.000000
vn 0.000000 0.000000 0.000000
vn 0.000000 0.000000 0.000000
vn 0.000000 0.000000 0.000000
vn 0.000000 0.000000 0.000000
vn 0.000000 0.000000 0.000000
vn 0.000000 0.000000 0.000000
vn 0.000000 0.000000 0.000000
vn 0.000000 0.000000 0.000000
vn 0.000000 0.000000 0.000000
vn 0.000000 0.000000 0.000000
vn 0.000000 0.000000 0.000000
vn 0.000000 0.000000 0.000000
vn 0.000000 0.000000 0.000000
vn 0.000000 0.000000 0.000000
vn 0.000000 0.000000 0.000000
vn 0.000000 0.000000 0.000000
vn 0.000000 0.000000 0.000000
vn 0.000000 0.000000 0.000000
vn 0.199721 0.074249 -0.977036
vn 0.199721 0.074249 -0.977036
vn 0.244323 0.028475 -0.969276
vn 0.239606 0.033372 -0.970297
vn -0.605905 0.016243 -0.795371
vn -0.605905 0.016243 -0.795371
vn -0.581373 0.025357 -0.813242
vn -0.570515 0.029315 -0.820764
vn -0.942585 0.003079 -0.333954
vn -0.942585 0.003079 -0.333954
vn -0.979440 0.011360 -0.201414
vn -0.986787 0.013771 -0.161436
vn -0.861682 0.055279 0.504429
vn -0.717551 0.068546 0.693125
vn -0.681490 0.068396 0.728624
vn -0.784557 0.059893 0.617158
vn -0.434684 0.080855 0.896946
vn -0.440898 0.080973 0.893897
vn 0.497332 0.068029 0.864889
vn 0.497332 0.068029 0.864889
vn 0.459152 0.054926 0.886658
vn 0.448883 0.051438 0.892109
vn 0.938136 0.036044 0.344386
vn 0.938136 0.036044 0.344386
vn 0.878194 0.033775 0.477111
vn 0.876404 0.033707 0.480396
vn 0.829503 0.006505 -0.558464
vn 0.829503 0.006505 -0.558464
vn 0.887469 0.032273 -0.459737
vn 0.873701 0.025675 -0.485785
vn 0.337584 0.012958 -0.941206
vn 0.340538 0.014982 -0.940112
vn -0.555700 -0.002188 -0.831380
vn -0.555577 -0.001482 -0.831464
vn -0.999108 0.033433 0.025781
vn -0.999364 0.031527 0.016652
vn -0.620771 0.028955 0.783457
vn -0.693054 0.029144 0.720296
vn -0.396955 0.036243 0.917122
vn 0.381144 0.032360 0.923949
vn 0.377718 0.031926 0.925370
vn 0.785665 0.039279 0.617404
vn 0.777067 0.041375 0.628056
vn 0.937923 0.044014 -0.344040
vn 0.940351 0.042559 -0.337534
vn 0.354743 0.035394 -0.934294
vn 0.356677 0.035400 -0.933557
vn -0.595766 0.031990 -0.802520
vn -0.604975 0.047683 -0.794816
vn -0.998649 0.051779 0.004310
vn -0.998288 0.056143 -0.016388
vn -0.631846 0.035950 0.774260
vn -0.658224 0.042817 0.751604
vn -0.501842 0.048564 0.863595
vn 0.480813 0.040720 0.875877
vn 0.462921 0.039041 0.885539
vn 0.729640 0.048899 0.682081
vn 0.733486 0.048844 0.677948
vn 0.931657 0.041226 -0.360993
vn 0.936936 0.039963 -0.347209
vn 0.322018 0.063483 -0.944603
vn 0.321875 0.063791 -0.944631
vn -0.640220 0.130257 -0.757067
vn -0.640189 0.130241 -0.757097
vn -0.981133 0.073594 -0.178777
vn -0.981442 0.073543 -0.177099
vn -0.652859 0.050270 0.755810
vn -0.645713 0.054117 0.761660
vn -0.665593 0.044853 0.744966
vn 0.568260 0.062575 0.820466
vn 0.567851 0.062024 0.820791
vn 0.723481 0.059952 0.687736
vn 0.723192 0.059562 0.688073
vn 0.864031 0.058292 -0.500052
vn 0.867340 0.057518 -0.494382
vn 0.285695 0.138989 -0.948188
vn 0.285695 0.138989 -0.948188
vn -0.619599 0.119834 -0.775717
vn -0.619599 0.119834 -0.775717
vn -0.923643 0.078148 -0.375202
vn -0.923643 0.078148 -0.375202
vn -0.681944 -0.017960 0.731184
vn -0.650694 -0.004809 0.759325
vn -0.782032 -0.064308 0.619912
vn 0.582346 0.081790 0.808816
vn 0.582346 0.081790 0.808816
vn 0.737428 0.079246 0.670761
vn 0.737428 0.079246 0.670761
vn 0.760913 0.078123 -0.644134
vn 0.760913 0.078123 -0.644134
s 1
g pCylinder1
usemtl initialShadingGroup
f 1/9/1 2/10/2 10/19/3 9/18/4
s 2
f 2/10/5 3/11/6 11/20/7 10/19/8
s 3
f 3/11/9 4/12/10 12/21/11 11/20/12
s 4
f 4/12/13 5/13/14 13/22/15 12/21/16
s 5
f 5/13/17 6/14/18 14/23/19 13/22/20
s 6
f 6/14/21 7/15/22 15/24/23 14/23/24
s 7
f 7/15/25 8/16/26 16/25/27 15/24/28
s 8
f 8/16/29 1/17/30 9/26/31 16/25/32
s 9
f 2/2/33 1/1/34 17/35/35
f 3/3/36 2/2/33 17/35/35
f 4/4/37 3/3/36 17/35/35
f 5/5/38 4/4/37 17/35/35
f 6/6/39 5/5/38 17/35/35
f 7/7/40 6/6/39 17/35/35
f 8/8/41 7/7/40 17/35/35
f 1/1/34 8/8/41 17/35/35
s 10
f 86/105/42 87/106/43 88/36/44
f 87/106/43 89/107/45 88/36/44
f 89/107/45 90/108/46 88/36/44
f 90/108/46 91/109/47 88/36/44
f 91/109/47 92/110/48 88/36/44
f 92/110/48 93/111/49 88/36/44
f 93/111/49 94/112/50 88/36/44
f 94/112/50 86/105/42 88/36/44
s 1
f 9/33/4 10/32/3 19/38/51 18/37/52
s 2
f 10/32/8 11/31/7 20/39/53 19/38/54
s 3
f 11/31/12 12/30/11 21/40/55 20/39/56
s 4
f 12/30/16 13/29/15 22/41/57 21/40/58
s 5
f 13/29/20 14/28/19 23/42/59 22/41/60
s 6
f 14/28/24 15/27/23 24/43/61 23/42/62
s 7
f 15/27/28 16/34/27 25/44/63 24/43/64
s 8
f 16/34/32 9/33/31 18/37/65 25/44/66
s 1
f 18/37/52 19/38/51 27/46/67 26/45/68
s 2
f 19/38/54 20/39/53 28/47/69 27/46/70
s off
f 50/69/71 51/70/72 52/71/73 53/72/74
s 4
f 21/40/58 22/41/57 30/49/75 29/48/76
s 5
f 22/41/60 23/42/59 31/50/77 30/49/78
s 6
f 23/42/62 24/43/61 32/51/79 31/50/80
s 7
f 24/43/64 25/44/63 33/52/81 32/51/82
s 8
f 25/44/66 18/37/65 26/45/83 33/52/84
s 1
f 26/45/68 27/46/67 35/54/85 34/53/86
s 2
f 27/46/70 28/47/69 36/55/87 35/54/88
s off
f 28/47/89 29/48/90 37/56/91 36/55/92
s 4
f 29/48/76 30/49/75 38/57/93 37/56/94
s 5
f 30/49/78 31/50/77 39/58/95 38/57/96
s 6
f 31/50/80 32/51/79 40/59/97 39/58/98
s 7
f 32/51/82 33/52/81 41/60/99 40/59/100
s 8
f 33/52/84 26/45/83 34/53/101 41/60/102
s off
f 34/53/103 35/54/104 43/62/105 42/61/106
f 35/54/107 36/55/108 44/63/109 43/62/110
f 36/55/111 37/56/112 45/64/113 44/63/114
f 37/56/115 38/57/116 46/65/117 45/64/118
f 38/57/119 39/58/120 47/66/121 46/65/122
f 39/58/123 40/59/124 48/67/125 47/66/126
f 40/59/127 41/60/128 49/68/129 48/67/130
f 41/60/131 34/53/132 42/61/133 49/68/134
f 20/39/135 21/40/136 51/70/137 50/69/138
f 21/40/139 29/48/140 52/71/141 51/70/142
f 29/48/143 28/47/144 53/72/145 52/71/146
f 28/47/147 20/39/148 50/69/149 53/72/150
s 11
f 42/61/151 43/62/152 55/74/153 54/73/154
s 12
f 43/62/155 44/63/156 56/75/157 55/74/158
s 13
f 44/63/159 45/64/160 57/76/161 56/75/162
s 14
f 45/64/163 46/65/164 58/77/165 57/76/166
f 46/65/164 47/66/167 59/78/168 58/77/165
s 15
f 47/66/169 48/67/170 60/79/171 59/78/172
s 16
f 48/67/173 49/68/174 61/80/175 60/79/176
s 17
f 49/68/177 42/61/178 54/73/179 61/80/180
s 11
f 54/73/154 55/74/153 63/82/181 62/81/182
s 12
f 55/74/158 56/75/157 64/83/183 63/82/184
s 13
f 56/75/162 57/76/161 65/84/185 64/83/186
s 14
f 57/76/166 58/77/165 66/85/187 65/84/188
f 58/77/165 59/78/168 67/86/189 66/85/187
s 15
f 59/78/172 60/79/171 68/87/190 67/86/191
s 16
f 60/79/176 61/80/175 69/88/192 68/87/193
s 17
f 61/80/180 54/73/179 62/81/194 69/88/195
s 11
f 62/81/182 63/82/181 71/90/196 70/89/197
s 12
f 63/82/184 64/83/183 72/91/198 71/90/199
s 13
f 64/83/186 65/84/185 73/92/200 72/91/201
s 14
f 65/84/188 66/85/187 74/93/202 73/92/203
f 66/85/187 67/86/189 75/94/204 74/93/202
s 15
f 67/86/191 68/87/190 76/95/205 75/94/206
s 16
f 68/87/193 69/88/192 77/96/207 76/95/208
s 17
f 69/88/195 62/81/194 70/89/209 77/96/210
s 11
f 70/89/197 71/90/196 79/98/211 78/97/212
s 12
f 71/90/199 72/91/198 80/99/213 79/98/214
s 13
f 72/91/201 73/92/200 81/100/215 80/99/216
s 14
f 73/92/203 74/93/202 82/101/217 81/100/218
f 74/93/202 75/94/204 83/102/219 82/101/217
s 15
f 75/94/206 76/95/205 84/103/220 83/102/221
s 16
f 76/95/208 77/96/207 85/104/222 84/103/223
s 17
f 77/96/210 70/89/209 78/97/224 85/104/225
s 11
f 78/97/212 79/98/211 87/106/226 86/105/227
s 12
f 79/98/214 80/99/213 89/107/228 87/106/229
s 13
f 80/99/216 81/100/215 90/108/230 89/107/231
s 14
f 81/100/218 82/101/217 91/109/232 90/108/233
f 82/101/217 83/102/219 92/110/234 91/109/232
s 15
f 83/102/221 84/103/220 93/111/235 92/110/236
s 16
f 84/103/223 85/104/222 94/112/237 93/111/238
s 17
f 85/104/225 78/97/224 86/105/239 94/112/240
g default
v 0.000000 13.648566 -5.540092
v 4.136937 16.750957 -2.477604
v -1.580170 18.668341 -2.477605
v -5.113535 13.648566 -2.477605
v -1.580170 8.628792 -2.477604
v 4.136937 10.546175 -2.477604
v 5.113535 13.648566 2.477605
v 1.580169 18.668341 2.477604
v -4.136937 16.750957 2.477605
v -4.136937 10.546175 2.477604
v 1.580170 8.628792 2.477604
v 0.000000 13.648566 5.540092
vt 1.000000 0.500000
vt 0.838104 0.676208
vt 0.088104 0.823792
vt 0.176208 0.500000
vt 0.088104 0.176208
vt 0.838104 0.323792
vt 0.676208 0.500000
vt 0.588104 0.823792
vt 0.338104 0.676208
vt 0.338104 0.323792
vt 0.588104 0.176208
vt 0.500000 0.500000
vt 1.088104 0.823792
vt 1.176208 0.500000
vt 1.088104 0.176208
vn 0.185696 0.553693 -0.811752
vn 0.185696 0.553693 -0.811752
vn 0.185696 0.553693 -0.811752
vn -0.483173 0.340100 -0.806769
vn -0.483173 0.340100 -0.806769
vn -0.483173 0.340100 -0.806769
vn -0.483172 -0.340100 -0.806769
vn -0.483172 -0.340100 -0.806769
vn -0.483172 -0.340100 -0.806769
vn 0.185695 -0.553693 -0.811752
vn 0.185695 -0.553693 -0.811752
vn 0.185695 -0.553693 -0.811752
vn 0.594988 0.000000 -0.803735
vn 0.594988 0.000000 -0.803735
vn 0.594988 0.000000 -0.803735
vn 0.311627 0.929186 -0.198750
vn 0.311627 0.929186 -0.198750
vn 0.311627 0.929186 -0.198750
vn -0.801977 0.564503 -0.195370
vn -0.801977 0.564503 -0.195370
vn -0.801977 0.564503 -0.195370
vn -0.801977 -0.564503 -0.195370
vn -0.801977 -0.564503 -0.195370
vn -0.801977 -0.564503 -0.195370
vn 0.311627 -0.929186 -0.198750
vn 0.311627 -0.929186 -0.198750
vn 0.311627 -0.929186 -0.198750
vn 0.981127 0.000000 -0.193366
vn 0.981127 0.000000 -0.193366
vn 0.981127 0.000000 -0.193366
vn 0.801977 0.564503 0.195370
vn 0.801977 0.564503 0.195370
vn 0.801977 0.564503 0.195370
vn -0.311627 0.929186 0.198750
vn -0.311627 0.929186 0.198750
vn -0.311627 0.929186 0.198750
vn -0.981127 -0.000000 0.193366
vn -0.981127 -0.000000 0.193366
vn -0.981127 -0.000000 0.193366
vn -0.311627 -0.929186 0.198750
vn -0.311627 -0.929186 0.198750
vn -0.311627 -0.929186 0.198750
vn 0.801977 -0.564503 0.195370
vn 0.801977 -0.564503 0.195370
vn 0.801977 -0.564503 0.195370
vn 0.483173 0.340100 0.806769
vn 0.483173 0.340100 0.806769
vn 0.483173 0.340100 0.806769
vn -0.185695 0.553693 0.811752
vn -0.185695 0.553693 0.811752
vn -0.185695 0.553693 0.811752
vn -0.594988 -0.000000 0.803735
vn -0.594988 -0.000000 0.803735
vn -0.594988 -0.000000 0.803735
vn -0.185695 -0.553693 0.811752
vn -0.185695 -0.553693 0.811752
vn -0.185695 -0.553693 0.811752
vn 0.483172 -0.340100 0.806769
vn 0.483172 -0.340100 0.806769
vn 0.483172 -0.340100 0.806769
s off
g pPlatonic1
usemtl Maya_Blinn2SG
f 95/113/241 97/125/242 96/114/243
f 95/113/244 98/126/245 97/125/246
f 95/113/247 99/127/248 98/126/249
f 95/113/250 100/118/251 99/127/252
f 95/113/253 96/114/254 100/118/255
f 96/114/256 97/125/257 102/120/258
f 97/115/259 98/116/260 103/121/261
f 98/116/262 99/117/263 104/122/264
f 99/127/265 100/118/266 105/123/267
f 100/118/268 96/114/269 101/119/270
f 96/114/271 102/120/272 101/119/273
f 97/115/274 103/121/275 102/120/276
f 98/116/277 104/122/278 103/121/279
f 99/117/280 105/123/281 104/122/282
f 100/118/283 101/119/284 105/123/285
f 101/119/286 102/120/287 106/124/288
f 102/120/289 103/121/290 106/124/291
f 103/121/292 104/122/293 106/124/294
f 104/122/295 105/123/296 106/124/297
f 105/123/298 101/119/299 106/124/300
