# This file uses centimeters as units for non-parametric coordinates.

mtllib Tree2.mtl
g default
v -3.070643 8.004084 -6.116896
v 0.377131 9.068618 -6.157383
v -2.308665 11.360047 -6.403097
v -5.070394 10.197952 -4.206901
v -4.091442 7.188309 -2.603865
v -0.724686 6.490342 -3.809329
v 1.487174 8.910762 -2.669375
v 0.508221 11.920405 -4.272412
v -2.858535 12.618371 -3.066947
v -3.960351 10.040096 -0.718893
v -1.274556 7.748666 -0.473180
v -0.512578 11.104630 -0.759381
vt 1.000000 0.500000
vt 0.838104 0.676208
vt 0.088104 0.823792
vt 0.176208 0.500000
vt 0.088104 0.176208
vt 0.838104 0.323792
vt 0.676208 0.500000
vt 0.588104 0.823792
vt 0.338104 0.676208
vt 0.338104 0.323792
vt 0.588104 0.176208
vt 0.500000 0.500000
vt 1.088104 0.823792
vt 1.176208 0.500000
vt 1.088104 0.176208
vn 0.015625 -0.088484 -0.995955
vn 0.015625 -0.088484 -0.995955
vn 0.015625 -0.088484 -0.995955
vn -0.640908 0.080416 -0.763394
vn -0.640908 0.080416 -0.763394
vn -0.640908 0.080416 -0.763394
vn -0.823493 -0.451106 -0.344039
vn -0.823493 -0.451106 -0.344039
vn -0.823493 -0.451106 -0.344039
vn -0.294513 -0.908475 -0.296539
vn -0.294513 -0.908475 -0.296539
vn -0.294513 -0.908475 -0.296539
vn 0.209994 -0.705850 -0.676519
vn 0.209994 -0.705850 -0.676519
vn 0.209994 -0.705850 -0.676519
vn 0.470450 0.471428 -0.745944
vn 0.470450 0.471428 -0.745944
vn 0.470450 0.471428 -0.745944
vn -0.593663 0.715738 -0.367809
vn -0.593663 0.715738 -0.367809
vn -0.593663 0.715738 -0.367809
vn -0.943980 -0.150670 0.293599
vn -0.943980 -0.150670 0.293599
vn -0.943980 -0.150670 0.293599
vn -0.071964 -0.937090 0.341589
vn -0.071964 -0.937090 0.341590
vn -0.071964 -0.937090 0.341590
vn 0.770718 -0.576501 -0.271368
vn 0.770718 -0.576501 -0.271368
vn 0.770718 -0.576501 -0.271368
vn 0.943980 0.150670 -0.293599
vn 0.943980 0.150670 -0.293599
vn 0.943980 0.150670 -0.293599
vn 0.071964 0.937090 -0.341589
vn 0.071964 0.937090 -0.341589
vn 0.071964 0.937090 -0.341589
vn -0.770718 0.576501 0.271368
vn -0.770718 0.576501 0.271368
vn -0.770718 0.576501 0.271368
vn -0.470450 -0.471428 0.745944
vn -0.470450 -0.471428 0.745944
vn -0.470450 -0.471428 0.745944
vn 0.593663 -0.715738 0.367810
vn 0.593663 -0.715738 0.367810
vn 0.593663 -0.715738 0.367810
vn 0.823493 0.451106 0.344040
vn 0.823493 0.451106 0.344040
vn 0.823493 0.451106 0.344040
vn 0.294513 0.908475 0.296538
vn 0.294513 0.908475 0.296538
vn 0.294513 0.908475 0.296538
vn -0.209994 0.705851 0.676519
vn -0.209994 0.705851 0.676519
vn -0.209994 0.705851 0.676519
vn -0.015625 0.088484 0.995955
vn -0.015625 0.088484 0.995955
vn -0.015625 0.088484 0.995955
vn 0.640908 -0.080416 0.763394
vn 0.640908 -0.080416 0.763394
vn 0.640908 -0.080416 0.763394
s off
g pasted__pPlatonic1 group1
usemtl initialShadingGroup
f 1/1/1 3/13/2 2/2/3
f 1/1/4 4/14/5 3/13/6
f 1/1/7 5/15/8 4/14/9
f 1/1/10 6/6/11 5/15/12
f 1/1/13 2/2/14 6/6/15
f 2/2/16 3/13/17 8/8/18
f 3/3/19 4/4/20 9/9/21
f 4/4/22 5/5/23 10/10/24
f 5/15/25 6/6/26 11/11/27
f 6/6/28 2/2/29 7/7/30
f 2/2/31 8/8/32 7/7/33
f 3/3/34 9/9/35 8/8/36
f 4/4/37 10/10/38 9/9/39
f 5/5/40 11/11/41 10/10/42
f 6/6/43 7/7/44 11/11/45
f 7/7/46 8/8/47 12/12/48
f 8/8/49 9/9/50 12/12/51
f 9/9/52 10/10/53 12/12/54
f 10/10/55 11/11/56 12/12/57
f 11/11/58 7/7/59 12/12/60
g default
v -0.099553 12.020615 -4.325291
v 3.513412 13.519705 -2.016220
v -0.264290 15.957037 -1.929271
v -3.738280 12.954367 -1.849312
v -2.107621 8.661283 -1.886844
v 2.374171 9.010681 -1.989998
v 3.738280 11.086863 1.849312
v 2.107621 15.379947 1.886844
v -2.374172 15.030548 1.989999
v -3.513412 10.521523 2.016220
v 0.264291 8.084192 1.929271
v 0.099553 12.020615 4.325291
vt 1.000000 0.500000
vt 0.838104 0.676208
vt 0.088104 0.823792
vt 0.176208 0.500000
vt 0.088104 0.176208
vt 0.838104 0.323792
vt 0.676208 0.500000
vt 0.588104 0.823792
vt 0.338104 0.676208
vt 0.338104 0.323792
vt 0.588104 0.176208
vt 0.500000 0.500000
vt 1.088104 0.823792
vt 1.176208 0.500000
vt 1.088104 0.176208
vn 0.306729 0.504208 -0.807274
vn 0.306729 0.504208 -0.807274
vn 0.306729 0.504208 -0.807274
vn -0.415746 0.460114 -0.784506
vn -0.415746 0.460114 -0.784506
vn -0.415746 0.460114 -0.784506
vn -0.586565 -0.215973 -0.780574
vn -0.586565 -0.215973 -0.780575
vn -0.586565 -0.215973 -0.780574
vn 0.028201 -0.598182 -0.800864
vn 0.028201 -0.598182 -0.800864
vn 0.028201 -0.598182 -0.800864
vn 0.575902 -0.150180 -0.803606
vn 0.575902 -0.150180 -0.803606
vn 0.575902 -0.150180 -0.803606
vn 0.527533 0.824888 -0.203146
vn 0.527533 0.824888 -0.203146
vn 0.527533 0.824888 -0.203146
vn -0.646410 0.743287 -0.172277
vn -0.646410 0.743287 -0.172277
vn -0.646410 0.743287 -0.172277
vn -0.922357 -0.348892 -0.165926
vn -0.922357 -0.348892 -0.165926
vn -0.922357 -0.348892 -0.165926
vn 0.071859 -0.978631 -0.192658
vn 0.071859 -0.978631 -0.192658
vn 0.071859 -0.978631 -0.192658
vn 0.948306 -0.240799 -0.206717
vn 0.948306 -0.240799 -0.206717
vn 0.948306 -0.240799 -0.206717
vn 0.922357 0.348892 0.165926
vn 0.922357 0.348892 0.165926
vn 0.922357 0.348892 0.165926
vn -0.071859 0.978632 0.192657
vn -0.071859 0.978631 0.192657
vn -0.071859 0.978631 0.192657
vn -0.948306 0.240799 0.206717
vn -0.948306 0.240799 0.206717
vn -0.948306 0.240799 0.206717
vn -0.527533 -0.824889 0.203145
vn -0.527533 -0.824889 0.203145
vn -0.527533 -0.824889 0.203145
vn 0.646410 -0.743287 0.172277
vn 0.646410 -0.743287 0.172277
vn 0.646410 -0.743287 0.172277
vn 0.586565 0.215973 0.780575
vn 0.586565 0.215973 0.780575
vn 0.586565 0.215973 0.780575
vn -0.028201 0.598182 0.800864
vn -0.028201 0.598182 0.800864
vn -0.028201 0.598182 0.800864
vn -0.575902 0.150179 0.803606
vn -0.575902 0.150179 0.803606
vn -0.575902 0.150179 0.803606
vn -0.306729 -0.504208 0.807274
vn -0.306729 -0.504208 0.807274
vn -0.306729 -0.504208 0.807274
vn 0.415747 -0.460114 0.784506
vn 0.415747 -0.460114 0.784506
vn 0.415747 -0.460114 0.784506
s off
g pPlatonic1
usemtl initialShadingGroup
f 13/16/61 15/28/62 14/17/63
f 13/16/64 16/29/65 15/28/66
f 13/16/67 17/30/68 16/29/69
f 13/16/70 18/21/71 17/30/72
f 13/16/73 14/17/74 18/21/75
f 14/17/76 15/28/77 20/23/78
f 15/18/79 16/19/80 21/24/81
f 16/19/82 17/20/83 22/25/84
f 17/30/85 18/21/86 23/26/87
f 18/21/88 14/17/89 19/22/90
f 14/17/91 20/23/92 19/22/93
f 15/18/94 21/24/95 20/23/96
f 16/19/97 22/25/98 21/24/99
f 17/20/100 23/26/101 22/25/102
f 18/21/103 19/22/104 23/26/105
f 19/22/106 20/23/107 24/27/108
f 20/23/109 21/24/110 24/27/111
f 21/24/112 22/25/113 24/27/114
f 22/25/115 23/26/116 24/27/117
f 23/26/118 19/22/119 24/27/120
g default
v 0.707107 0.000000 -0.707107
v 0.000000 0.000000 -1.000000
v -0.707107 0.000000 -0.707107
v -1.000000 0.000000 0.000000
v -0.707107 0.000000 0.707107
v 0.000000 0.000000 1.000000
v 0.707107 0.000000 0.707107
v 1.000000 0.000000 0.000000
v 0.707107 1.443944 -0.707107
v 0.000000 1.443944 -1.000000
v -0.707107 1.443944 -0.707107
v -1.000000 1.443944 0.000000
v -0.707107 1.443944 0.707107
v 0.000000 1.443944 1.000000
v 0.707107 1.443944 0.707107
v 1.000000 1.443944 0.000000
v 0.000000 0.000000 0.000000
v 0.668442 2.822446 -0.655981
v -0.038664 2.822446 -0.948874
v -0.550395 2.822446 -0.655981
v -0.843288 2.822446 0.051126
v -0.550395 2.822446 0.758232
v -0.038664 2.822446 1.051126
v 0.668442 2.822446 0.758232
v 0.961335 2.822446 0.051126
v 0.570773 4.168033 -0.664650
v -0.166804 4.168033 -0.823064
v -0.635380 4.168033 -0.489269
v -0.833898 4.168033 0.180962
v -0.452726 4.168033 0.766902
v 0.091508 4.168033 0.953429
v 0.753427 4.168033 0.591520
v 0.951945 4.168033 -0.078710
v 0.463983 5.492795 -0.557005
v -0.090990 5.492795 -0.683376
v -0.526138 5.492795 -0.386394
v -0.720997 5.492795 0.079073
v -0.441788 5.492795 0.691693
v 0.005243 5.492795 0.878225
v 0.696189 5.492795 0.493373
v 0.835646 5.492795 -0.053366
v 0.605410 8.045210 -0.358750
v 0.035478 8.019223 -0.632130
v -0.659932 8.058020 -0.251116
v -0.578501 8.130541 0.235241
v -0.044169 8.211282 0.636777
v 0.011928 8.222341 0.641044
v 0.361684 8.189648 0.584180
v 0.741856 8.114576 0.174052
v 0.492286 9.895584 -0.378357
v -0.213432 9.950401 -0.612507
v -0.539520 9.877746 -0.302164
v -0.565366 9.762874 0.188507
v -0.240980 9.672079 0.576334
v -0.001802 9.648702 0.676188
v 0.388961 9.700721 0.453992
v 0.688700 9.783498 0.100413
v 0.413306 11.531325 -0.330261
v 0.016769 11.531325 -0.486143
v -0.411201 11.531325 -0.148913
v -0.463090 11.531325 0.174490
v -0.024628 11.531325 0.439852
v 0.044734 11.531325 0.579579
v 0.333314 11.531325 0.342071
v 0.617859 11.531325 0.090153
v 0.204129 12.760793 -0.249469
v -0.011685 12.760793 -0.278093
v 0.184389 12.760792 -0.017575
v -0.256536 12.760793 -0.077911
v -0.413975 12.760793 0.113993
v -0.176903 12.760793 0.427521
v -0.071024 12.760793 0.508866
v 0.360334 12.760793 0.228020
v 0.540470 12.760793 -0.030928
v -0.328559 0.000000 -0.863907
v -0.328559 1.443944 -0.863907
v -0.276441 2.822446 -0.812781
v -0.384529 4.168033 -0.667966
v -0.293182 5.492795 -0.545383
v -0.287646 8.037251 -0.455091
v -0.364950 9.916641 -0.468306
v -0.182088 11.531325 -0.329448
v -0.125455 12.760793 -0.185078
v 0.365147 0.000000 -0.848751
v 0.365147 1.443944 -0.848751
v 0.326483 2.822446 -0.797625
v 0.214078 4.168033 -0.741260
v 0.195596 5.492795 -0.618119
v 0.329789 8.032642 -0.490958
v 0.150998 9.922094 -0.491593
v 0.221539 11.531325 -0.405646
v 0.099760 12.760793 -0.263312
v 0.329443 6.767162 -0.681722
v 0.537025 6.811015 -0.454615
v 0.787207 6.846840 0.064086
v 0.523431 6.885612 0.540271
v 0.008695 6.902496 0.755731
v -0.236434 6.896784 0.663331
v -0.647403 6.855085 0.159727
v -0.681065 6.884411 -0.315721
v 0.362141 7.054991 -0.683651
v 0.555432 7.143215 -0.428811
v 0.775000 7.188067 0.093685
v 0.479894 7.236609 0.552090
v 0.009565 7.257749 0.724861
v -0.184683 7.250598 0.656184
v -0.628857 7.198391 0.180053
v -0.648367 7.172240 -0.317650
v 0.255076 7.319966 -0.636286
v 0.573622 7.471513 -0.403311
v 0.762937 7.525289 0.122936
v 0.436870 7.583486 0.563769
v 0.010425 7.608830 0.694355
v -0.133541 7.600257 0.649120
v -0.610529 7.537665 0.200139
v -0.484667 7.405799 -0.368355
v -0.233829 7.522505 -0.454250
v 0.036936 7.491088 -0.552320
v 0.165743 6.533604 -0.631017
v 0.518275 6.472628 -0.480898
v 0.799641 6.499256 0.033936
v 0.567778 6.528075 0.528232
v 0.007809 6.540626 0.787175
v -0.289148 6.536380 0.670612
v -0.666295 6.505385 0.139023
v -0.574000 6.619436 -0.363086
v -0.355860 6.448314 -0.447052
v -0.085095 6.416897 -0.545122
v -0.821499 7.068966 -0.987196
v -0.861297 7.356794 -0.989125
v -0.094071 6.951716 -1.353198
v -0.061373 7.239545 -1.355126
v -0.697597 7.530710 -1.039830
v -0.537004 7.647416 -1.125725
v -0.266239 7.615999 -1.223795
v -0.168437 7.504521 -1.307762
v -0.714435 6.873960 -1.034561
v -0.659036 6.702837 -1.118527
v -0.388270 6.671420 -1.216597
v -0.257771 6.788126 -1.302493
v -1.038343 7.400733 -1.657073
v -1.078140 7.688561 -1.659002
v -0.463539 7.408760 -2.023075
v -0.430841 7.571312 -2.025004
v -0.985899 7.791273 -1.709707
v -0.825306 7.907979 -1.795603
v -0.554541 7.876563 -1.893672
v -0.456739 7.765085 -1.977639
v -1.002737 7.205727 -1.572851
v -0.874841 7.139130 -1.788404
v -0.676572 7.107712 -1.886475
v -0.546073 7.197642 -1.972370
v -1.295251 7.838603 -2.315369
v -1.262552 8.126432 -2.317297
v -0.647951 7.827874 -2.681370
v -0.615253 8.009183 -2.683299
v -1.170311 8.300347 -2.368003
v -1.009717 8.417053 -2.453898
v -0.738952 8.385637 -2.551968
v -0.722317 8.274158 -2.635934
v -1.188186 7.714801 -2.231146
v -1.059253 7.621427 -2.446700
v -0.788487 7.590010 -2.544770
v -0.811651 7.706716 -2.630665
v -1.358692 8.457172 -2.890574
v -1.155850 8.365366 -3.024294
v -1.397452 8.745002 -2.892503
v -1.152504 8.728621 -3.013143
v -1.091494 8.361209 -3.143447
v -1.076876 8.723866 -3.136355
v -0.885654 8.339923 -3.261025
v -0.852955 8.627752 -3.262954
v -1.233752 8.918917 -2.943209
v -1.247420 9.035623 -3.033553
v -1.057822 9.004207 -3.131622
v -0.960020 8.892728 -3.215589
v -1.251628 8.339915 -2.937939
v -1.297993 8.168793 -3.026354
v -1.098687 8.137375 -3.124424
v -1.049353 8.254082 -3.210320
vt 0.610485 0.045765
vt 0.500000 0.000000
vt 0.389515 0.045765
vt 0.343750 0.156250
vt 0.389515 0.266735
vt 0.500000 0.312500
vt 0.610485 0.266735
vt 0.656250 0.156250
vt 0.375000 0.312500
vt 0.406250 0.312500
vt 0.437500 0.312500
vt 0.468750 0.312500
vt 0.500000 0.312500
vt 0.531250 0.312500
vt 0.562500 0.312500
vt 0.593750 0.312500
vt 0.625000 0.312500
vt 0.375000 0.687500
vt 0.406250 0.687500
vt 0.437500 0.687500
vt 0.468750 0.687500
vt 0.500000 0.687500
vt 0.531250 0.687500
vt 0.562500 0.687500
vt 0.593750 0.687500
vt 0.625000 0.687500
vt 0.610485 0.733265
vt 0.500000 0.687500
vt 0.389515 0.733265
vt 0.343750 0.843750
vt 0.389515 0.954235
vt 0.500000 1.000000
vt 0.610485 0.954235
vt 0.656250 0.843750
vt 0.500000 0.156250
vt 0.500000 0.843750
vt 0.610485 0.954235
vt 0.500000 1.000000
vt 0.389515 0.954235
vt 0.343750 0.843750
vt 0.389515 0.733265
vt 0.500000 0.687500
vt 0.610485 0.733265
vt 0.656250 0.843750
vt 0.610485 0.954235
vt 0.500000 1.000000
vt 0.389515 0.954235
vt 0.343750 0.843750
vt 0.389515 0.733265
vt 0.500000 0.687500
vt 0.610485 0.733265
vt 0.656250 0.843750
vt 0.610485 0.954235
vt 0.500000 1.000000
vt 0.389515 0.954235
vt 0.343750 0.843750
vt 0.389515 0.733265
vt 0.500000 0.687500
vt 0.610485 0.733265
vt 0.656250 0.843750
vt 0.610485 0.954235
vt 0.500000 1.000000
vt 0.389515 0.954235
vt 0.343750 0.843750
vt 0.389515 0.733265
vt 0.500000 0.687500
vt 0.610485 0.733265
vt 0.656250 0.843750
vt 0.610485 0.954235
vt 0.500000 1.000000
vt 0.389515 0.954235
vt 0.343750 0.843750
vt 0.389515 0.733265
vt 0.500000 0.687500
vt 0.610485 0.733265
vt 0.656250 0.843750
vt 0.610485 0.954235
vt 0.500000 1.000000
vt 0.389515 0.954235
vt 0.343750 0.843750
vt 0.389515 0.733265
vt 0.500000 0.687500
vt 0.610485 0.733265
vt 0.656250 0.843750
vt 0.610485 0.954235
vt 0.500000 1.000000
vt 0.389515 0.954235
vt 0.343750 0.843750
vt 0.389515 0.733265
vt 0.500000 0.687500
vt 0.610485 0.733265
vt 0.656250 0.843750
vt 0.420770 0.312500
vt 0.448663 0.021265
vt 0.448663 0.978735
vt 0.420770 0.687500
vt 0.448663 0.978735
vt 0.448663 0.978735
vt 0.448663 0.978735
vt 0.448663 0.978735
vt 0.448663 0.978735
vt 0.448663 0.978735
vt 0.448663 0.978735
vt 0.390113 0.312500
vt 0.557054 0.023633
vt 0.557054 0.976367
vt 0.390113 0.687500
vt 0.557054 0.976367
vt 0.557054 0.976367
vt 0.557054 0.976367
vt 0.557054 0.976367
vt 0.557054 0.976367
vt 0.557054 0.976367
vt 0.557054 0.976367
vt 0.557054 0.976367
vt 0.610485 0.954235
vt 0.656250 0.843750
vt 0.610485 0.733265
vt 0.500000 0.687500
vt 0.389515 0.733265
vt 0.343750 0.843750
vt 0.389515 0.954235
vt 0.448663 0.978735
vt 0.500000 1.000000
vt 0.557054 0.976367
vt 0.610485 0.954235
vt 0.656250 0.843750
vt 0.610485 0.733265
vt 0.500000 0.687500
vt 0.389515 0.733265
vt 0.343750 0.843750
vt 0.389515 0.954235
vt 0.448663 0.978735
vt 0.500000 1.000000
vt 0.557054 0.976367
vt 0.610485 0.954235
vt 0.656250 0.843750
vt 0.610485 0.733265
vt 0.500000 0.687500
vt 0.389515 0.733265
vt 0.343750 0.843750
vt 0.389515 0.954235
vt 0.448663 0.978736
vt 0.500000 1.000000
vt 0.557054 0.976367
vt 0.610485 0.954235
vt 0.656250 0.843750
vt 0.610485 0.733265
vt 0.500000 0.687500
vt 0.389515 0.733265
vt 0.343750 0.843750
vt 0.389515 0.954235
vt 0.448663 0.978735
vt 0.500000 1.000000
vt 0.389515 0.954235
vt 0.389515 0.954235
vt 0.557054 0.976367
vt 0.557054 0.976367
vt 0.389515 0.954235
vt 0.448663 0.978736
vt 0.500000 1.000000
vt 0.557054 0.976367
vt 0.448663 0.978735
vt 0.389515 0.954235
vt 0.500000 1.000000
vt 0.557054 0.976367
vt 0.389515 0.954235
vt 0.389515 0.954235
vt 0.557054 0.976367
vt 0.557054 0.976367
vt 0.389515 0.954235
vt 0.448663 0.978736
vt 0.500000 1.000000
vt 0.557054 0.976367
vt 0.448663 0.978735
vt 0.389515 0.954235
vt 0.500000 1.000000
vt 0.557054 0.976367
vt 0.389515 0.954235
vt 0.389515 0.954235
vt 0.557054 0.976367
vt 0.557054 0.976367
vt 0.389515 0.954235
vt 0.448663 0.978736
vt 0.500000 1.000000
vt 0.557054 0.976367
vt 0.448663 0.978735
vt 0.389515 0.954235
vt 0.500000 1.000000
vt 0.557054 0.976367
vt 0.389515 0.954235
vt 0.389515 0.954235
vt 0.557054 0.976367
vt 0.557054 0.976367
vt 0.389515 0.954235
vt 0.448663 0.978736
vt 0.500000 1.000000
vt 0.557054 0.976367
vt 0.448663 0.978735
vt 0.389515 0.954235
vt 0.500000 1.000000
vt 0.557054 0.976367
vn 0.382683 0.000000 -0.923880
vn 0.382683 0.000000 -0.923880
vn 0.382591 0.021969 -0.923657
vn 0.382592 0.021888 -0.923658
vn -0.382684 0.000000 -0.923880
vn -0.382683 0.000000 -0.923880
vn -0.405836 0.023886 -0.913634
vn -0.405564 0.016037 -0.913926
vn -0.923880 0.000000 -0.382683
vn -0.923880 0.000000 -0.382683
vn -0.922327 0.057957 -0.382040
vn -0.922308 0.058303 -0.382032
vn -0.923880 0.000000 0.382683
vn -0.923880 0.000000 0.382683
vn -0.922927 0.045409 0.382289
vn -0.923018 0.043180 0.382326
vn -0.382683 0.000000 0.923880
vn -0.382683 0.000000 0.923880
vn -0.405837 -0.006783 0.913920
vn -0.404949 -0.006521 0.914316
vn 0.382683 0.000000 0.923880
vn 0.382683 0.000000 0.923880
vn 0.382659 -0.011340 0.923820
vn 0.382657 -0.011640 0.923817
vn 0.923880 0.000000 0.382683
vn 0.923880 0.000000 0.382683
vn 0.923865 0.005639 0.382677
vn 0.923864 0.005807 0.382677
vn 0.923880 0.000000 -0.382684
vn 0.923880 0.000000 -0.382684
vn 0.923705 0.019433 -0.382611
vn 0.923700 0.019733 -0.382609
vn 0.000000 -1.000000 0.000000
vn 0.000000 -1.000000 0.000000
vn 0.000000 -1.000000 0.000000
vn 0.000000 -1.000000 0.000000
vn 0.000000 -1.000000 0.000000
vn 0.000000 -1.000000 0.000000
vn 0.000000 -1.000000 0.000000
vn 0.000000 -1.000000 0.000000
vn 0.000000 -1.000000 0.000000
vn 0.000000 -1.000000 0.000000
vn 0.000000 -1.000000 0.000000
vn -0.000002 1.000000 0.000005
vn -0.000001 1.000000 -0.000001
vn 0.000001 1.000000 -0.000000
vn -0.000001 1.000000 -0.000001
vn 0.000002 1.000000 0.000000
vn 0.000002 1.000000 0.000007
vn 0.000001 1.000000 -0.000001
vn 0.000001 1.000000 -0.000007
vn -0.000000 1.000000 -0.000008
vn -0.000002 1.000000 -0.000005
vn -0.000003 1.000000 -0.000002
vn 0.341040 0.055069 -0.938434
vn 0.342325 0.042706 -0.938611
vn -0.481449 0.050158 -0.875038
vn -0.478935 0.036400 -0.877095
vn -0.917383 0.118384 -0.379992
vn -0.917383 0.118384 -0.379992
vn -0.905009 0.051164 0.422305
vn -0.906495 0.054708 0.418658
vn -0.423960 0.022088 0.905412
vn -0.424670 0.019313 0.905142
vn 0.407261 0.015436 0.913181
vn 0.406165 0.013675 0.913698
vn 0.932897 0.011162 0.359971
vn 0.932501 0.011187 0.360994
vn 0.906488 0.026287 -0.421412
vn 0.906953 0.026653 -0.420389
vn 0.259219 0.079552 -0.962537
vn 0.261214 0.064427 -0.963129
vn -0.553143 0.080935 -0.829146
vn -0.552739 0.074005 -0.830062
vn -0.880824 0.041106 0.471655
vn -0.880962 0.040458 0.471454
vn -0.384198 0.054697 0.921629
vn -0.384637 0.054855 0.921437
vn 0.457450 0.069218 0.886538
vn 0.455824 0.068285 0.887447
vn 0.951886 0.038557 0.304018
vn 0.951140 0.036306 0.306617
vn 0.856764 0.052554 -0.513024
vn 0.858211 0.050704 -0.510786
vn 0.214229 0.093277 -0.972320
vn 0.214198 0.094809 -0.972178
vn -0.568597 0.114300 -0.814637
vn -0.568452 0.116483 -0.814429
vn -0.941961 0.079098 -0.326272
vn -0.941961 0.079098 -0.326272
vn -0.941961 0.079098 -0.326272
vn -0.941961 0.079098 -0.326272
vn -0.873517 0.072998 0.481289
vn -0.873517 0.072998 0.481289
vn -0.351902 0.043077 0.935045
vn -0.351902 0.043077 0.935045
vn 0.481579 0.083165 0.872448
vn 0.481579 0.083165 0.872448
vn 0.961150 0.070288 0.266929
vn 0.961150 0.070288 0.266929
vn 0.818811 0.097341 -0.565750
vn 0.818811 0.097341 -0.565750
vn 0.370036 0.023857 -0.928711
vn 0.370133 0.035128 -0.928314
vn 0.355413 0.036078 -0.934013
vn 0.356533 0.030035 -0.933800
vn -0.558840 -0.046449 -0.827974
vn -0.559678 -0.027116 -0.828266
vn -0.601479 0.040309 -0.797871
vn -0.604443 0.039314 -0.795678
vn -0.997476 0.040245 0.058493
vn -0.997476 0.040245 0.058493
vn -0.998649 0.051779 0.004310
vn -0.998288 0.056143 -0.016388
vn -0.676772 -0.014684 0.736046
vn -0.617520 -0.015140 0.786409
vn -0.631846 0.035950 0.774260
vn -0.658224 0.042817 0.751604
vn -0.333106 -0.016030 0.942753
vn -0.501842 0.048564 0.863595
vn 0.351836 0.028650 0.935623
vn 0.351836 0.028650 0.935623
vn 0.480813 0.040720 0.875877
vn 0.462921 0.039041 0.885539
vn 0.745765 0.048657 0.664430
vn 0.745765 0.048657 0.664430
vn 0.729640 0.048899 0.682081
vn 0.733486 0.048844 0.677948
vn 0.949717 0.036633 -0.310960
vn 0.949717 0.036633 -0.310960
vn 0.931657 0.041226 -0.360993
vn 0.936936 0.039963 -0.347209
vn 0.320800 0.066099 -0.944838
vn 0.322094 0.062941 -0.944613
vn -0.639877 0.130187 -0.757370
vn -0.639967 0.135265 -0.756403
vn -0.981133 0.073594 -0.178777
vn -0.981442 0.073543 -0.177099
vn -0.652859 0.050270 0.755810
vn -0.645713 0.054117 0.761660
vn -0.665593 0.044853 0.744966
vn 0.568260 0.062575 0.820466
vn 0.567851 0.062024 0.820791
vn 0.723481 0.059952 0.687736
vn 0.723192 0.059562 0.688073
vn 0.864031 0.058292 -0.500052
vn 0.867340 0.057518 -0.494382
vn 0.285667 0.139707 -0.948091
vn 0.286243 0.124731 -0.950004
vn -0.619596 0.119869 -0.775714
vn -0.619714 0.118300 -0.775861
vn -0.923643 0.078148 -0.375202
vn -0.923643 0.078148 -0.375202
vn -0.681944 -0.017960 0.731184
vn -0.650694 -0.004809 0.759325
vn -0.782032 -0.064308 0.619912
vn 0.582346 0.081790 0.808816
vn 0.582346 0.081790 0.808816
vn 0.737428 0.079246 0.670761
vn 0.737428 0.079246 0.670761
vn 0.760913 0.078123 -0.644134
vn 0.760913 0.078123 -0.644134
vn -0.941796 0.010572 -0.336017
vn -0.941796 0.010572 -0.336017
vn -0.941796 0.010572 -0.336017
vn -0.941796 0.010572 -0.336017
vn -0.382683 0.000000 -0.923880
vn -0.405025 0.029333 -0.913835
vn -0.481793 0.062835 -0.874029
vn -0.553534 0.085664 -0.828409
vn -0.568722 0.112392 -0.814815
vn -0.560305 -0.007859 -0.828249
vn -0.596250 0.041761 -0.801712
vn -0.640397 0.125946 -0.757647
vn -0.619498 0.121166 -0.775591
vn 0.382683 0.000000 -0.923880
vn 0.382590 0.022056 -0.923655
vn 0.339892 0.068094 -0.937996
vn 0.258991 0.091406 -0.961545
vn 0.214258 0.091830 -0.972451
vn 0.370182 0.046051 -0.927817
vn 0.354863 0.039563 -0.934081
vn 0.321811 0.064233 -0.944623
vn 0.285132 0.152265 -0.946317
vn 0.163642 0.042641 -0.985598
vn -0.241468 0.081871 -0.966949
vn -0.232364 0.081013 -0.969249
vn 0.229387 0.006654 -0.973313
vn -0.452286 0.064803 -0.889515
vn -0.456632 0.053100 -0.888070
vn -0.466081 0.026919 -0.884333
vn -0.466081 0.026919 -0.884333
vn -0.959029 0.014079 -0.282958
vn -0.959029 0.014079 -0.282958
vn -0.969152 -0.013400 -0.246100
vn -0.977630 -0.104820 -0.182353
vn -0.865689 0.077947 0.494476
vn -0.865689 0.077948 0.494476
vn -0.847458 0.075523 0.525462
vn -0.851304 0.076031 0.519134
vn -0.376532 0.077438 0.923162
vn -0.376532 0.077438 0.923162
vn -0.373264 0.077268 0.924502
vn -0.373663 0.077288 0.924339
vn 0.457411 0.051580 0.887758
vn 0.457411 0.051580 0.887758
vn 0.447319 0.051109 0.892913
vn 0.445914 0.051043 0.893619
vn 0.940900 0.055781 0.334060
vn 0.940900 0.055781 0.334060
vn 0.931248 0.053424 0.360449
vn 0.928121 0.052689 0.368530
vn 0.840816 0.036690 -0.540077
vn 0.840816 0.036690 -0.540077
vn 0.851726 0.035169 -0.522806
vn 0.854558 0.034763 -0.518191
vn 0.324218 0.025660 -0.945634
vn 0.374466 -0.024379 -0.926920
vn 0.682679 -0.114108 -0.721754
vn 0.744944 -0.120867 -0.656087
vn 0.784263 -0.025037 -0.619923
vn 0.688195 0.107473 -0.717521
vn 0.900293 0.027450 -0.434418
vn 0.898301 0.027804 -0.438501
vn 0.919695 0.023775 -0.391913
vn 0.921743 0.023360 -0.387097
vn 0.874104 0.041432 0.483969
vn 0.877375 0.042055 0.477958
vn 0.844226 0.035986 0.534777
vn 0.840163 0.035276 0.541185
vn 0.387419 0.048239 0.920641
vn 0.389166 0.048324 0.919899
vn 0.348977 0.046330 0.935985
vn 0.346400 0.046200 0.936949
vn -0.354064 0.076251 0.932107
vn -0.353409 0.076215 0.932359
vn -0.334929 0.075213 0.939237
vn -0.336191 0.075282 0.938780
vn -0.778004 0.066644 0.624715
vn -0.774284 0.066181 0.629368
vn -0.731156 0.060884 0.679488
vn -0.735674 0.061433 0.674544
vn -0.986972 -0.144206 0.071357
vn -0.999559 -0.027094 -0.012152
vn -0.978659 0.198899 -0.051627
vn -0.990770 0.111718 0.076773
vn -0.670502 0.071678 -0.738438
vn -0.507598 -0.004238 -0.861584
vn -0.534838 -0.014571 -0.844829
vn -0.652824 -0.026485 -0.757047
vn -0.642534 0.086493 -0.761360
vn -0.640696 -0.005756 -0.767773
vn -0.501655 0.056319 -0.863232
vn -0.498700 0.031808 -0.866191
vn 0.449984 0.110053 -0.886230
vn 0.533215 0.107227 -0.839157
vn 0.945434 0.018059 -0.325314
vn 0.947923 0.017436 -0.318021
vn 0.794253 0.027643 0.606957
vn 0.787882 0.026634 0.615251
vn 0.276901 0.042622 0.959953
vn 0.271227 0.042324 0.961584
vn -0.283066 0.072283 0.956373
vn -0.288393 0.072591 0.954757
vn -0.667331 0.053250 0.742855
vn -0.674208 0.054063 0.736560
vn -0.998630 -0.005327 -0.052056
vn -0.996460 0.049250 -0.068134
vn -0.670618 -0.013758 -0.741675
vn -0.652679 -0.079920 -0.753407
vn -0.615726 -0.072210 -0.784645
vn -0.551843 -0.009397 -0.833895
vn 0.374177 0.071928 -0.924564
vn 0.504565 0.085054 -0.859174
vn 0.955181 0.015526 -0.295616
vn 0.955181 0.015526 -0.295616
vn 0.771131 0.024030 0.636223
vn 0.771131 0.024030 0.636223
vn 0.237417 0.040523 0.970562
vn 0.237417 0.040523 0.970562
vn -0.246072 0.070092 0.966714
vn -0.246072 0.070092 0.966714
vn -0.647019 0.050863 0.760776
vn -0.647019 0.050863 0.760776
vn -0.993523 -0.111826 -0.020181
vn -0.993523 -0.111826 -0.020181
vn -0.424166 -0.036261 -0.904858
vn -0.422711 0.007411 -0.906234
vn -0.422711 0.007411 -0.906234
vn -0.424095 -0.033398 -0.905002
vn -0.424844 -0.092163 -0.900563
vn -0.424844 -0.092163 -0.900563
vn 0.124494 0.044988 -0.991200
vn 0.124494 0.044988 -0.991200
vn -0.626354 0.186089 -0.757002
vn -0.684772 0.187450 -0.704237
vn -0.618608 0.187833 -0.762918
vn -0.655250 0.197413 -0.729161
vn -0.967721 -0.010247 0.251815
vn -0.967721 -0.010247 0.251815
vn 0.829390 -0.097907 -0.550024
vn 0.829390 -0.097907 -0.550023
vn -0.680389 0.636906 0.362523
vn -0.550047 0.761303 0.343316
vn -0.520861 0.783900 0.337943
vn -0.680389 0.636906 0.362523
vn -0.080428 0.975185 0.206267
vn -0.084813 0.974466 0.207904
vn 0.393763 0.919051 -0.017198
vn 0.376426 0.926419 -0.007228
vn 0.612528 0.775554 -0.152730
vn 0.612528 0.775554 -0.152730
vn 0.819781 0.403821 -0.406063
vn 0.819781 0.403821 -0.406063
vn 0.819781 0.403821 -0.406063
vn 0.819781 0.403821 -0.406063
vn -0.451772 -0.876433 -0.166635
vn -0.776721 -0.629590 0.017924
vn -0.776721 -0.629590 0.017924
vn -0.500613 -0.853634 -0.143858
vn -0.901705 -0.429667 0.048106
vn -0.901705 -0.429667 0.048106
vn 0.031073 -0.925399 -0.377717
vn 0.041559 -0.923162 -0.382159
vn 0.444483 -0.725363 -0.525626
vn 0.456022 -0.715675 -0.529011
vn 0.566061 -0.608622 -0.556016
vn 0.566061 -0.608622 -0.556016
vn -0.960375 -0.131142 0.245929
vn -0.960375 -0.131142 0.245929
vn -0.960375 -0.131142 0.245929
vn -0.960375 -0.131142 0.245929
vn 0.835469 -0.125893 -0.534924
vn 0.835469 -0.125893 -0.534924
vn 0.835469 -0.125893 -0.534924
vn 0.835469 -0.125893 -0.534924
vn -0.535222 0.679273 0.502121
vn -0.535222 0.679273 0.502121
vn -0.535222 0.679273 0.502121
vn -0.535222 0.679273 0.502121
vn -0.343888 0.815641 0.465265
vn -0.343888 0.815641 0.465265
vn -0.343888 0.815641 0.465265
vn -0.343888 0.815641 0.465265
vn 0.208589 0.938467 0.275264
vn 0.208589 0.938467 0.275264
vn 0.208589 0.938467 0.275264
vn 0.208589 0.938467 0.275264
vn 0.731618 0.679847 -0.050433
vn 0.731618 0.679847 -0.050433
vn 0.731618 0.679847 -0.050433
vn 0.731618 0.679847 -0.050433
vn 0.898371 0.322058 -0.298679
vn 0.898371 0.322058 -0.298679
vn 0.898371 0.322058 -0.298679
vn 0.898371 0.322058 -0.298679
vn -0.811083 -0.584009 -0.032842
vn -0.811083 -0.584009 -0.032842
vn -0.811083 -0.584009 -0.032842
vn -0.811083 -0.584008 -0.032842
vn -0.924133 -0.318050 0.211714
vn -0.924133 -0.318050 0.211714
vn -0.924133 -0.318050 0.211714
vn -0.924133 -0.318050 0.211714
vn -0.297484 -0.847327 -0.439932
vn -0.297484 -0.847327 -0.439932
vn -0.297484 -0.847327 -0.439932
vn -0.297484 -0.847327 -0.439932
vn 0.227539 -0.776221 -0.587969
vn 0.227539 -0.776221 -0.587969
vn 0.227539 -0.776221 -0.587969
vn 0.227539 -0.776221 -0.587969
vn 0.563437 -0.539571 -0.625621
vn 0.563437 -0.539571 -0.625621
vn 0.563437 -0.539571 -0.625621
vn 0.563437 -0.539571 -0.625621
vn -0.950019 -0.009625 0.312043
vn -0.950019 -0.009625 0.312043
vn -0.950019 -0.009625 0.312043
vn -0.950019 -0.009625 0.312043
vn 0.911546 -0.177521 -0.370906
vn 0.911546 -0.177521 -0.370906
vn 0.911546 -0.177521 -0.370906
vn 0.911546 -0.177521 -0.370906
vn -0.562797 0.588223 0.580735
vn -0.562797 0.588223 0.580735
vn -0.562797 0.588223 0.580735
vn -0.562797 0.588223 0.580735
vn -0.203188 0.746193 0.633965
vn -0.203188 0.746193 0.633965
vn -0.203188 0.746193 0.633965
vn -0.203188 0.746193 0.633965
vn 0.285954 0.795131 0.534787
vn 0.285954 0.795131 0.534787
vn 0.285954 0.795131 0.534787
vn 0.285954 0.795131 0.534787
vn 0.898604 0.437642 0.031311
vn 0.898604 0.437642 0.031311
vn 0.898604 0.437642 0.031311
vn 0.898604 0.437642 0.031311
vn 0.948325 0.297592 -0.110082
vn 0.948325 0.297592 -0.110082
vn 0.948325 0.297592 -0.110082
vn 0.948325 0.297592 -0.110082
vn -0.766488 -0.597797 -0.234808
vn -0.766488 -0.597797 -0.234808
vn -0.766488 -0.597797 -0.234808
vn -0.766488 -0.597797 -0.234808
vn -0.916637 -0.399175 0.020874
vn -0.916637 -0.399175 0.020874
vn -0.916637 -0.399175 0.020874
vn -0.916637 -0.399175 0.020874
vn -0.320770 -0.797016 -0.511735
vn -0.320770 -0.797016 -0.511735
vn -0.320770 -0.797016 -0.511735
vn -0.320770 -0.797016 -0.511735
vn 0.345217 -0.699515 -0.625703
vn 0.345217 -0.699515 -0.625703
vn 0.345217 -0.699515 -0.625703
vn 0.345217 -0.699515 -0.625703
vn 0.544516 -0.586508 -0.599592
vn 0.544516 -0.586508 -0.599592
vn 0.544516 -0.586508 -0.599592
vn 0.544516 -0.586508 -0.599592
vn -0.987048 -0.009319 0.160154
vn -0.987048 -0.009319 0.160154
vn -0.987048 -0.009319 0.160154
vn -0.987048 -0.009319 0.160154
vn 0.869172 -0.125094 -0.478426
vn 0.869172 -0.125094 -0.478426
vn 0.869172 -0.125094 -0.478426
vn 0.869172 -0.125094 -0.478426
vn -0.483248 0.553378 0.678413
vn -0.483248 0.553378 0.678413
vn -0.483249 0.553378 0.678413
vn -0.483248 0.553378 0.678413
vn -0.151412 0.654569 0.740684
vn -0.151412 0.654569 0.740684
vn -0.151412 0.654569 0.740684
vn -0.151412 0.654569 0.740684
vn 0.353047 0.719391 0.598192
vn 0.353047 0.719391 0.598192
vn 0.353047 0.719392 0.598192
vn 0.353047 0.719391 0.598192
vn 0.899241 0.436152 0.033718
vn 0.899241 0.436152 0.033718
vn 0.899241 0.436152 0.033718
vn 0.899241 0.436152 0.033718
vn 0.928067 0.372050 0.016450
vn 0.928067 0.372050 0.016450
vn 0.928067 0.372050 0.016450
vn 0.928067 0.372050 0.016450
vn -0.961616 -0.273406 -0.023305
vn -0.961616 -0.273406 -0.023305
vn -0.961616 -0.273406 -0.023305
vn -0.961616 -0.273406 -0.023305
vn -0.592017 -0.606948 -0.530217
vn -0.592017 -0.606948 -0.530217
vn -0.592017 -0.606948 -0.530217
vn -0.592017 -0.606948 -0.530217
vn -0.334487 -0.759115 -0.558447
vn -0.334487 -0.759115 -0.558447
vn -0.334487 -0.759115 -0.558447
vn -0.334487 -0.759115 -0.558447
vn 0.381483 -0.575291 -0.723540
vn 0.381483 -0.575291 -0.723540
vn 0.381483 -0.575291 -0.723540
vn 0.381483 -0.575291 -0.723540
vn 0.209879 -0.677369 -0.705069
vn 0.209879 -0.677369 -0.705069
vn 0.209879 -0.677369 -0.705069
vn 0.209879 -0.677369 -0.705069
s 1
g pCylinder1
usemtl initialShadingGroup
f 25/39/121 108/134/122 109/137/123 33/48/124
s 2
f 26/40/125 99/123/126 100/126/127 34/49/128
s 3
f 27/41/129 28/42/130 36/51/131 35/50/132
s 4
f 28/42/133 29/43/134 37/52/135 36/51/136
s 5
f 29/43/137 30/44/138 38/53/139 37/52/140
s 6
f 30/44/141 31/45/142 39/54/143 38/53/144
s 7
f 31/45/145 32/46/146 40/55/147 39/54/148
s 8
f 32/46/149 25/47/150 33/56/151 40/55/152
s 9
f 26/32/153 108/135/154 25/31/155 41/65/156
f 27/33/157 99/124/158 26/32/153 41/65/156
f 28/34/159 27/33/157 41/65/156
f 29/35/160 28/34/159 41/65/156
f 30/36/161 29/35/160 41/65/156
f 31/37/162 30/36/161 41/65/156
f 32/38/163 31/37/162 41/65/156
f 25/31/155 32/38/163 41/65/156
s 10
f 90/115/164 116/144/165 91/116/166 92/66/167
f 91/116/166 107/133/168 93/117/169 92/66/167
f 93/117/169 94/118/170 92/66/167
f 94/118/170 95/119/171 92/66/167
f 95/119/171 96/120/172 92/66/167
f 96/120/172 97/121/173 92/66/167
f 97/121/173 98/122/174 92/66/167
f 98/122/174 90/115/164 92/66/167
s 1
f 33/63/124 109/136/123 110/138/175 42/67/176
s 2
f 34/62/128 100/125/127 101/127/177 43/68/178
s 3
f 35/61/132 36/60/131 45/70/179 44/69/180
s 4
f 36/60/136 37/59/135 46/71/181 45/70/182
s 5
f 37/59/140 38/58/139 47/72/183 46/71/184
s 6
f 38/58/144 39/57/143 48/73/185 47/72/186
s 7
f 39/57/148 40/64/147 49/74/187 48/73/188
s 8
f 40/64/152 33/63/151 42/67/189 49/74/190
s 1
f 42/67/176 110/138/175 111/139/191 50/75/192
s 2
f 43/68/178 101/127/177 102/128/193 51/76/194
s 4
f 45/70/182 46/71/181 54/79/195 53/78/196
s 5
f 46/71/184 47/72/183 55/80/197 54/79/198
s 6
f 47/72/186 48/73/185 56/81/199 55/80/200
s 7
f 48/73/188 49/74/187 57/82/201 56/81/202
s 8
f 49/74/190 42/67/189 50/75/203 57/82/204
s 1
f 50/75/192 111/139/191 112/140/205 58/83/206
s 2
f 51/76/194 102/128/193 103/129/207 59/84/208
s off
f 52/77/209 53/78/210 61/86/211 60/85/212
s 4
f 53/78/196 54/79/195 62/87/213 61/86/214
s 5
f 54/79/198 55/80/197 63/88/215 62/87/216
s 6
f 55/80/200 56/81/199 64/89/217 63/88/218
s 7
f 56/81/202 57/82/201 65/90/219 64/89/220
s 8
f 57/82/204 50/75/203 58/83/221 65/90/222
s 11
f 66/91/223 113/141/224 114/142/225 74/99/226
s 12
f 67/92/227 104/130/228 105/131/229 75/100/230
s 13
f 68/93/231 69/94/232 77/102/233 76/101/234
s 14
f 69/94/235 70/95/236 78/103/237 77/102/238
f 70/95/236 71/96/239 79/104/240 78/103/237
s 15
f 71/96/241 72/97/242 80/105/243 79/104/244
s 16
f 72/97/245 73/98/246 81/106/247 80/105/248
s 17
f 73/98/249 66/91/250 74/99/251 81/106/252
s 11
f 74/99/226 114/142/225 115/143/253 82/107/254
s 12
f 75/100/230 105/131/229 106/132/255 83/108/256
s 13
f 76/101/234 77/102/233 85/110/257 84/109/258
s 14
f 77/102/238 78/103/237 86/111/259 85/110/260
f 78/103/237 79/104/240 87/112/261 86/111/259
s 15
f 79/104/244 80/105/243 88/113/262 87/112/263
s 16
f 80/105/248 81/106/247 89/114/264 88/113/265
s 17
f 81/106/252 74/99/251 82/107/266 89/114/267
s 11
f 82/107/254 115/143/253 116/144/268 90/115/269
s 12
f 83/108/256 106/132/255 107/133/270 91/116/271
s 13
f 84/109/258 85/110/257 94/118/272 93/117/273
s 14
f 85/110/260 86/111/259 95/119/274 94/118/275
f 86/111/259 87/112/261 96/120/276 95/119/274
s 15
f 87/112/263 88/113/262 97/121/277 96/120/278
s 16
f 88/113/265 89/114/264 98/122/279 97/121/280
s 17
f 89/114/267 82/107/266 90/115/281 98/122/282
s off
f 44/69/283 45/70/284 53/78/285 52/77/286
s 2
f 100/126/127 99/123/126 27/41/287 35/50/288
f 101/127/177 100/125/127 35/61/288 44/69/289
f 102/128/193 101/127/177 44/69/289 52/77/290
f 103/129/207 102/128/193 52/77/290 60/85/291
s 12
f 105/131/229 104/130/228 68/93/292 76/101/293
f 106/132/255 105/131/229 76/101/293 84/109/294
f 107/133/270 106/132/255 84/109/294 93/117/295
s 1
f 109/137/123 108/134/122 26/40/296 34/49/297
f 110/138/175 109/136/123 34/62/297 43/68/298
f 111/139/191 110/138/175 43/68/298 51/76/299
f 112/140/205 111/139/191 51/76/299 59/84/300
s 11
f 114/142/225 113/141/224 67/92/301 75/100/302
f 115/143/253 114/142/225 75/100/302 83/108/303
f 116/144/268 115/143/253 83/108/303 91/116/304
s 18
f 112/140/305 59/84/306 152/184/307 143/175/308
f 59/84/306 103/129/309 151/183/310 152/184/307
f 103/129/309 60/85/311 150/182/312 151/183/310
s 19
f 60/85/313 61/86/314 149/181/315 150/182/316
s 20
f 61/86/317 62/87/318 148/180/319 149/181/320
s 21
f 62/87/321 63/88/322 147/179/323 148/180/324
s 22
f 63/88/325 64/89/326 146/178/327 147/179/328
s 23
f 64/89/329 65/90/330 145/177/331 146/178/332
s 24
f 65/90/333 58/83/334 144/176/335 145/177/336
s 18
f 58/83/337 112/140/305 143/175/308 144/176/338
f 118/146/339 117/145/340 125/155/341 126/156/342
s 24
f 119/147/343 118/146/344 126/156/345 127/157/346
s 23
f 120/148/347 119/147/348 127/157/349 128/158/350
s 22
f 121/149/351 120/148/352 128/158/353 129/159/354
s 21
f 122/150/355 121/149/356 129/159/357 130/160/358
s 20
f 123/151/359 122/150/360 130/160/361 131/161/362
s 19
f 124/152/363 123/151/364 131/161/365 132/162/366
s 25
f 190/153/367 189/221/368 191/222/369 192/163/370
f 193/154/371 190/153/367 192/163/370 194/164/372
f 195/224/373 193/154/371 194/164/372 196/223/374
s 18
f 126/156/342 125/155/341 133/165/375 134/166/376
s 24
f 127/157/346 126/156/345 134/166/377 135/167/378
s 23
f 128/158/350 127/157/349 135/167/379 136/168/380
s 22
f 129/159/354 128/158/353 136/168/381 137/169/382
s 21
f 130/160/358 129/159/357 137/169/383 138/170/384
s 20
f 131/161/362 130/160/361 138/170/385 139/171/386
s 19
f 132/162/366 131/161/365 139/171/387 140/172/388
s 25
f 192/163/370 191/222/369 197/225/389 198/226/390
f 194/164/372 192/163/370 198/226/390 199/227/391
f 196/223/374 194/164/372 199/227/391 200/228/392
s 18
f 134/166/376 133/165/375 113/141/393 66/91/394
s 24
f 135/167/378 134/166/377 66/91/395 73/98/396
s 23
f 136/168/380 135/167/379 73/98/397 72/97/398
s 22
f 137/169/382 136/168/381 72/97/399 71/96/400
s 21
f 138/170/384 137/169/383 71/96/401 70/95/402
s 20
f 139/171/386 138/170/385 70/95/403 69/94/404
s 19
f 140/172/388 139/171/387 69/94/405 68/93/406
s 26
f 141/173/407 140/172/408 68/93/409 104/130/410
f 142/174/411 141/173/407 104/130/410 67/92/412
s 18
f 133/165/375 142/174/413 67/92/414 113/141/393
f 144/176/338 143/175/308 117/145/340 118/146/339
s 24
f 145/177/336 144/176/335 118/146/344 119/147/343
s 23
f 146/178/332 145/177/331 119/147/348 120/148/347
s 22
f 147/179/328 146/178/327 120/148/352 121/149/351
s 21
f 148/180/324 147/179/323 121/149/356 122/150/355
s 20
f 149/181/320 148/180/319 122/150/360 123/151/359
s 19
f 150/182/316 149/181/315 123/151/364 124/152/363
s 25
f 202/229/415 201/230/416 189/221/368 190/153/367
f 203/231/417 202/229/415 190/153/367 193/154/371
f 204/232/418 203/231/417 193/154/371 195/224/373
s 19
f 124/152/363 132/162/366 154/186/419 153/185/420
s 18
f 125/155/341 117/145/340 155/188/421 156/187/422
s 27
f 132/162/423 140/172/424 157/189/425 154/186/426
f 140/172/424 141/173/427 158/190/428 157/189/425
f 141/173/427 142/174/429 159/191/430 158/190/428
f 142/174/429 133/165/431 160/192/432 159/191/430
s off
f 133/165/433 125/155/434 156/187/435 160/192/436
s 28
f 151/183/437 150/182/438 161/194/439 162/193/440
s 19
f 150/182/316 124/152/363 153/185/441 161/194/442
s 28
f 152/184/443 151/183/437 162/193/440 163/195/444
f 143/175/445 152/184/443 163/195/444 164/196/446
f 117/145/447 143/175/445 164/196/446 155/188/448
s off
f 153/185/449 154/186/450 166/198/451 165/197/452
f 156/187/453 155/188/454 167/200/455 168/199/456
f 154/186/457 157/189/458 169/201/459 166/198/460
f 157/189/461 158/190/462 170/202/463 169/201/464
f 158/190/465 159/191/466 171/203/467 170/202/468
f 159/191/469 160/192/470 172/204/471 171/203/472
f 160/192/473 156/187/474 168/199/475 172/204/476
f 162/193/477 161/194/478 173/206/479 174/205/480
f 161/194/481 153/185/482 165/197/483 173/206/484
f 163/195/485 162/193/486 174/205/487 175/207/488
f 164/196/489 163/195/490 175/207/491 176/208/492
f 155/188/493 164/196/494 176/208/495 167/200/496
f 165/197/497 166/198/498 178/210/499 177/209/500
f 168/199/501 167/200/502 179/212/503 180/211/504
f 166/198/505 169/201/506 181/213/507 178/210/508
f 169/201/509 170/202/510 182/214/511 181/213/512
f 170/202/513 171/203/514 183/215/515 182/214/516
f 171/203/517 172/204/518 184/216/519 183/215/520
f 172/204/521 168/199/522 180/211/523 184/216/524
f 174/205/525 173/206/526 185/218/527 186/217/528
f 173/206/529 165/197/530 177/209/531 185/218/532
f 175/207/533 174/205/534 186/217/535 187/219/536
f 176/208/537 175/207/538 187/219/539 188/220/540
f 167/200/541 176/208/542 188/220/543 179/212/544
f 177/209/545 178/210/546 191/222/547 189/221/548
f 180/211/549 179/212/550 195/224/551 196/223/552
f 178/210/553 181/213/554 197/225/555 191/222/556
f 181/213/557 182/214/558 198/226/559 197/225/560
f 182/214/561 183/215/562 199/227/563 198/226/564
f 183/215/565 184/216/566 200/228/567 199/227/568
f 184/216/569 180/211/570 196/223/571 200/228/572
f 186/217/573 185/218/574 201/230/575 202/229/576
f 185/218/577 177/209/578 189/221/579 201/230/580
f 187/219/581 186/217/582 202/229/583 203/231/584
f 188/220/585 187/219/586 203/231/587 204/232/588
f 179/212/589 188/220/590 204/232/591 195/224/592
